<svg xmlns="http://www.w3.org/2000/svg" width="1080" height="1080" viewBox="0 0 1080 1080"><defs><style>.a,.b{fill:#dcdbdb;}.a{opacity:0.6;}.b{opacity:0.46;}.c{fill:#b7dba0;}.d,.e{fill:#fff;}.e{opacity:0.25;}.f,.g,.l,.n{fill:none;stroke-miterlimit:10;}.f,.g{stroke:#fff;}.f{stroke-width:3px;}.g{stroke-width:5px;}.h{fill:#302f2f;}.i{fill:#fffdf8;}.j{fill:#fffcfd;}.k{fill:#2d2e2d;}.l,.n{stroke:#010101;stroke-width:4px;}.l{stroke-linecap:round;}.m{fill:#010101;}</style></defs><title>Boba Tea</title><path class="a" d="M390.3,425.18s166.42,83.27,348-1.27c0,0,14.3-109.58-121.57-149,0,0-59.87,64.35-98.88-1.68C517.81,273.2,394.14,303.88,390.3,425.18Z"/><path class="a" d="M738.26,423.91c-181.54,84.54-348,1.27-348,1.27s-37,35.18-.09,80c0,0,162.66,73.56,348.48-1.79C738.69,503.42,779.41,465.05,738.26,423.91Z"/><path class="b" d="M390.21,505.21,414.35,786s4.23,35.65,21.07,44.11c0,0,110.18,46.41,256.58,0,0,0,18.14-9.88,20.78-41.12l25.91-285.61C552.87,578.77,390.21,505.21,390.21,505.21Z"/><path class="c" d="M409.63,609.17l13.43,179s2.62,30.81,21.36,38c0,0,93.1,38.39,238.83,0,0,0,18.66-8.9,20.81-33.86l14-183.44s9.72-59.24-106.3-54.34c0,0-105-.51-136.2,8.85C475.59,563.38,410.09,574.53,409.63,609.17Z"/><circle class="d" cx="457.21" cy="707.1" r="30"/><circle class="d" cx="476.67" cy="765.19" r="19.47"/><circle class="d" cx="644.24" cy="719.23" r="26.49"/><circle class="d" cx="601.33" cy="674.07" r="18.67"/><circle class="d" cx="565.04" cy="765.73" r="33.2"/><circle class="d" cx="644.24" cy="789.43" r="24.25"/><path class="d" d="M506.47,793.31c-8.48,0-8.49,13.17,0,13.17S515,793.31,506.47,793.31Z"/><path class="d" d="M517.23,728.72c-8.48,0-8.49,13.17,0,13.17S525.72,728.72,517.23,728.72Z"/><path class="d" d="M486.28,658.75c-8.47,0-8.49,13.17,0,13.17S494.78,658.75,486.28,658.75Z"/><path class="d" d="M565.67,633.18c-8.48,0-8.49,13.18,0,13.18S574.16,633.18,565.67,633.18Z"/><path class="d" d="M583.16,708.53c-8.47,0-8.49,13.18,0,13.18S591.66,708.53,583.16,708.53Z"/><path class="d" d="M596.62,808.11c-8.48,0-8.49,13.17,0,13.17S605.11,808.11,596.62,808.11Z"/><path class="d" d="M690.81,731.41c-8.48,0-8.49,13.17,0,13.17S699.3,731.41,690.81,731.41Z"/><path class="d" d="M634.3,623.76c-8.48,0-8.5,13.18,0,13.18S642.79,623.76,634.3,623.76Z"/><path class="d" d="M470.14,607.62c-8.48,0-8.5,13.17,0,13.17S478.63,607.62,470.14,607.62Z"/><circle class="d" cx="533.98" cy="682.16" r="26.49"/><circle class="d" cx="663.71" cy="657.63" r="19.47"/><path class="e" d="M558.35,599.5l61-506c1.31-10.93-7-20.92-18.56-22.31L591.05,70c-11.56-1.39-22,6.33-23.32,17.26l-61,506S511.2,608.17,558.35,599.5Z"/><path class="f" d="M558.35,599.5l61-506c1.31-10.93-7-20.92-18.56-22.31L591.05,70c-11.56-1.39-22,6.33-23.32,17.26l-61,506S511.2,608.17,558.35,599.5Z"/><path class="g" d="M583.16,98.36s3.51,10.76,26.39,0"/><circle class="d" cx="485.39" cy="490.9" r="39.76"/><circle class="h" cx="475.69" cy="500.6" r="28.12"/><circle class="i" cx="466.76" cy="511.6" r="12.95"/><circle class="j" cx="609.55" cy="494.93" r="39.76"/><circle class="k" cx="599.29" cy="505.18" r="28.12"/><circle class="d" cx="590.35" cy="511.6" r="12.95"/><path class="l" d="M494.89,572.77s31.61,69.12,80.56,7.32"/><ellipse class="m" cx="806.92" cy="758.11" rx="21.38" ry="7.31" transform="translate(-246.35 416.84) rotate(-25.26)"/><ellipse class="m" cx="798.46" cy="777.77" rx="5.35" ry="15.12" transform="translate(-301.18 960.12) rotate(-53.66)"/><path class="l" d="M704.89,609.76s39.56,8,81,156.35"/><ellipse class="m" cx="315" cy="758.11" rx="7.31" ry="21.38" transform="translate(-505.04 719.47) rotate(-64.74)"/><ellipse class="m" cx="323.45" cy="777.77" rx="15.12" ry="5.35" transform="translate(-397.96 342.9) rotate(-36.34)"/><path class="l" d="M417,609.76s-39.55,8-81,156.35"/><path class="n" d="M609.55,821.28s-25.42,86.92-7.07,158.23"/><path class="n" d="M499.51,826.68s-25.42,86.92-7.07,158.23"/><ellipse class="m" cx="485.39" cy="984.91" rx="16.66" ry="8.96" transform="translate(-603.21 841.34) rotate(-56.25)"/><ellipse class="m" cx="595.82" cy="984.91" rx="16.66" ry="8.96" transform="translate(-541.99 1159.37) rotate(-67.55)"/></svg>