<svg xmlns="http://www.w3.org/2000/svg" width="1080" height="1080" viewBox="0 0 1080 1080"><defs><style>.a{fill:#f8dca4;}.b{fill:#d77842;}.c{fill:#fc6;}.d{fill:#bf5e28;}.e{fill:#ab593a;}.f{fill:none;stroke:#010101;stroke-linecap:round;stroke-miterlimit:10;stroke-width:6px;}.g{fill:#fff;}.h{fill:#302f2f;}.i{fill:#fffdf8;}.j{fill:#fffcfd;}.k{fill:#2d2e2d;}.l{fill:#010101;}</style></defs><title>Bunmaska-01</title><ellipse class="a" cx="556.03" cy="516.1" rx="328.94" ry="101.11"/><path class="b" d="M230,508.34s-22,105,6.27,129.77c0,0,77.85,89.19,107.58,89.19,0,0,381.53,34.68,490.54-32.21,0,0,30.62,5.45,61.94-95.38,8.28-26.67,3-65.74-11.54-89.6l-.77-1.27a2.82,2.82,0,0,0-3.54-1.19c-14.41,6.25-81,32.81-226,67.82a149.84,149.84,0,0,1-28.43,4C591.83,581,503,582.92,398,568.66a73.61,73.61,0,0,0-15.42-.47C357.4,570.05,272,571.29,230,508.34Z"/><path class="c" d="M274.05,442.39l-41.68,50.79s-12.39,21.93,13,24A39.85,39.85,0,0,1,267.62,526c12.07,9.93,35.81,23,70.19,12.49,11.4-3.47,23.63-1.73,33.14,5.44,9.8,7.39,24.21,13.63,40.62,6,7.25-3.37,15.26-5.21,23.19-4.14,10.67,1.45,29.57.94,60.22-9,54.51-17.62,6.2,0,6.2,0s40,5.56,78,15l6.27,1.6c38.23,10,127.13-15.6,147.87-16.58a43.62,43.62,0,0,0,6.43-.89c16.32-3.26,74-14.39,104.69-15.36A38.82,38.82,0,0,0,878,499.31c.35-.69.69-1.39,1-2.11,11.3-23.57-4.34-51.29-30.25-54.81C723.47,425.36,305.23,374,274.05,442.39Z"/><path class="d" d="M882.64,483.35c-8.85-158.47-106-275.29-316.77-275.29s-324.15,115-324.15,273.72c0,0,86.35.16,124.55,26.48,27.08,18.65,60,26.68,92.86,25.44,12.32-.47,26.64-1.16,43.29-2.12C502.42,531.58,883.88,505.46,882.64,483.35Z"/><path class="e" d="M244.23,442.39c5.12-5,10.59-9.71,16.09-14.34s11.25-9,17-13.3c11.56-8.59,23.6-16.55,35.87-24.15a511,511,0,0,1,77.6-38.72,479.91,479.91,0,0,1,83.49-24.73c14.28-2.87,28.71-5,43.2-6.52s29.09-2.21,43.67-2.3,29.18.54,43.7,2c3.64.29,7.25.77,10.87,1.2s7.24.84,10.84,1.44l10.81,1.66,10.74,2c3.59.63,7.13,1.48,10.69,2.26s7.12,1.52,10.64,2.48L680,334.09c3.51,1,7,2,10.48,3.06l5.23,1.54,5.18,1.71c3.44,1.15,6.91,2.25,10.34,3.44l10.22,3.79c1.69.64,3.41,1.23,5.09,1.92l5,2.05c3.36,1.39,6.74,2.7,10.06,4.15l9.92,4.47c1.65.75,3.31,1.46,4.94,2.25l4.89,2.38,9.74,4.8c12.81,6.74,25.48,13.71,37.67,21.44a549.13,549.13,0,0,1,69.34,51.3c-23.89-15.9-48.23-30.91-73.49-44.06-12.54-6.72-25.43-12.73-38.33-18.6-13.05-5.56-26.11-11-39.48-15.63l-5-1.79c-1.66-.6-3.35-1.1-5-1.66l-10.08-3.26-10.15-3-5.07-1.49-5.12-1.33c-13.61-3.69-27.4-6.61-41.25-9.09l-10.41-1.75-10.45-1.45c-3.47-.53-7-.85-10.47-1.23s-7-.79-10.5-1c-14-1.3-28.06-1.77-42.11-1.71s-28.12.64-42.12,2-28,3.21-41.83,5.64S449.65,348.47,436,352s-27.18,7.71-40.55,12.34a607.2,607.2,0,0,0-78.17,33.48c-6.32,3.24-12.62,6.56-18.83,10.05S286.08,415,280,418.64s-12.15,7.51-18.11,11.46S250,438.1,244.23,442.39Z"/><path class="e" d="M287.79,326.77q3.42-2.44,7-4.71c2.36-1.53,4.75-3,7.15-4.49,4.81-2.89,9.71-5.67,14.64-8.38,9.88-5.4,20-10.4,30.25-15.08a544.72,544.72,0,0,1,63.29-24Q426.29,265,442.78,261l8.25-2c2.75-.65,5.5-1.34,8.28-1.87L476,253.74l16.75-2.82c2.79-.51,5.6-.83,8.41-1.22l8.42-1.13,4.22-.56c1.4-.19,2.81-.36,4.22-.48l8.46-.8c5.64-.52,11.28-1.14,16.94-1.41s11.32-.65,17-.9l17-.33,4.25-.06c1.41,0,2.83.05,4.25.08l8.5.19c5.66.15,11.33.15,17,.64l17,1.12c5.64.5,11.27,1.2,16.9,1.81l8.43.94,8.4,1.28,16.76,2.66c44.47,8.29,87.92,21.73,128.52,40.87-43.1-12.51-86.6-22.08-130.53-27.65l-16.51-1.72-8.24-.89-8.27-.57-16.54-1.14-16.55-.6c-5.51-.28-11-.23-16.56-.27l-8.27,0c-1.38,0-2.76,0-4.14,0l-4.14.14-16.54.43c-5.51.27-11,.66-16.53,1s-11,.8-16.5,1.27l-8.25.74c-2.75.2-5.48.64-8.22.92l-8.23,1c-2.74.32-5.49.59-8.21,1l-16.4,2.39-16.33,2.81c-2.74.44-5.43,1-8.15,1.55l-8.14,1.6-4.07.8-4.05.91-8.09,1.81c-5.43,1.12-10.78,2.54-16.16,3.85-21.48,5.38-42.8,11.64-63.81,18.91A614.18,614.18,0,0,0,287.79,326.77Z"/><path class="f" d="M518.72,481.18s46.84,64.85,84.66-9"/><circle class="g" cx="474.29" cy="382.32" r="44.8"/><circle class="h" cx="463.36" cy="393.24" r="31.68"/><circle class="i" cx="453.3" cy="405.64" r="14.59"/><circle class="j" cx="648.12" cy="386.85" r="44.8"/><circle class="k" cx="636.56" cy="398.4" r="31.68"/><circle class="g" cx="626.49" cy="405.64" r="14.59"/><ellipse class="l" cx="957.18" cy="673.79" rx="8.86" ry="25.93" transform="translate(-213.34 666.51) rotate(-34.79)"/><ellipse class="l" cx="931.97" cy="667.62" rx="18.33" ry="6.48" transform="translate(-84.24 1198.27) rotate(-63.19)"/><path class="f" d="M844.14,465.49s48,9.72,98.19,189.56"/><ellipse class="l" cx="158.02" cy="673.34" rx="25.93" ry="8.86" transform="translate(-533.56 664.9) rotate(-76.09)"/><ellipse class="l" cx="179.38" cy="658.59" rx="6.48" ry="18.33" transform="translate(-428.41 347.93) rotate(-47.69)"/><path class="f" d="M259.59,465.49s-48,9.72-98.19,189.56"/><path class="f" d="M654.42,691.18s-65.08-165.58-99.57,16.26l-21.3,91"/><path class="f" d="M503.77,692.1s-63.53-214-100,33.47l-9.13,48.68"/><ellipse class="l" cx="387.49" cy="785.43" rx="12.65" ry="6.8" transform="translate(-480.85 671.28) rotate(-56.25)"/><ellipse class="l" cx="529.14" cy="810.39" rx="12.65" ry="6.8" transform="translate(-421.91 989.89) rotate(-67.55)"/></svg>