<svg xmlns="http://www.w3.org/2000/svg" width="1080" height="1080" viewBox="0 0 1080 1080"><defs><style>.a{fill:#d75227;}.b{fill:#bc3924;}.c{fill:#f57828;}.d{fill:#d45025;}.e{fill:#fff;}.f{fill:#553e1f;}.g{fill:#fdfffe;}.h{fill:#2f2f2f;}.i{fill:#fffdf7;}.j{fill:#fffcff;}.k{fill:#2d2d2d;}.l{fill:none;stroke:#000;stroke-linecap:round;stroke-miterlimit:10;stroke-width:4px;}</style></defs><title>OrangeCup</title><ellipse class="a" cx="553.75" cy="656.43" rx="452.7" ry="214.24"/><ellipse class="b" cx="564.88" cy="641.34" rx="232.82" ry="96.06"/><path class="c" d="M662.21,656.13l-31.41,5.69a321.54,321.54,0,0,1-131.34-3.49l-32.64-7.72A69.83,69.83,0,0,1,424,620.19L335.16,480.62a191.72,191.72,0,0,1-29.28-86.49L294.6,263h517L794.84,432.71a115.64,115.64,0,0,1-11.17,39.41l-71.19,146A69.79,69.79,0,0,1,662.21,656.13Z"/><ellipse class="d" cx="553.11" cy="263.03" rx="258.51" ry="68.3"/><ellipse class="e" cx="550.4" cy="264.94" rx="248.15" ry="60.09"/><path class="f" d="M747.19,283.84c0,24.19-88.11,26.82-196.79,26.82s-196.8-7.42-196.8-31.61,78.53-49.28,187.22-49.28S747.19,259.65,747.19,283.84Z"/><path class="c" d="M784.55,391.14s33.26-48.82,65.72-30.93c10.17,5.6,16.63,16.13,18,27.66,3.37,28,2.16,92.26-77.37,102H766.35l-19.16,51.73s76.3,11.06,119.55-43.64c1.77-2.24,3.65-4.39,5.59-6.48,14.5-15.56,73.13-86.09,22.41-160.12,0,0-40.92-55.15-103.82,5.21Z"/><circle class="g" cx="459.06" cy="420.93" r="44.07"/><circle class="h" cx="448.31" cy="427.97" r="31.16"/><circle class="i" cx="436.21" cy="438.3" r="14.36"/><circle class="j" cx="630.08" cy="425.38" r="44.07"/><circle class="k" cx="618.71" cy="434.44" r="31.16"/><circle class="e" cx="604.35" cy="440.89" r="14.36"/><path class="l" d="M531.23,487.91s24.91,34.49,45-4.79"/><line class="l" x1="338.66" y1="469.46" x2="308" y2="573.18"/><ellipse cx="291.35" cy="581.4" rx="15.33" ry="5.24" transform="translate(-212.56 170.32) rotate(-24.18)"/><ellipse cx="306" cy="585.96" rx="10.84" ry="3.83" transform="translate(-300.92 847.95) rotate(-85.77)"/><path class="l" d="M487.77,643.12s-60-202.16-94.5,31.62l-8.63,46"/><ellipse cx="377.92" cy="731.29" rx="11.95" ry="6.43" transform="translate(-440.09 639.26) rotate(-56.25)"/><path class="l" d="M630.08,649.83S568.6,475.24,536,667L515.9,762.89"/><ellipse cx="510.23" cy="773.6" rx="11.32" ry="6.09" transform="translate(-399.61 949.67) rotate(-67.55)"/><ellipse cx="820.34" cy="589.48" rx="15.33" ry="5.24" transform="translate(-173.11 406.44) rotate(-25.26)"/><ellipse cx="814.28" cy="603.58" rx="3.83" ry="10.84" transform="translate(-154.42 901.88) rotate(-53.66)"/><path class="l" d="M747.19,483.12s28.36,5.75,58.06,112.1"/></svg>