<svg xmlns="http://www.w3.org/2000/svg" xmlns:xlink="http://www.w3.org/1999/xlink" width="1080" height="1080" viewBox="0 0 1080 1080"><defs><style>.a{fill:#f47928;}.b{fill:#d55127;}.c{fill:#fff;}.d{fill:#563f1f;}.e{fill:#302f2f;}.f{fill:#fffdf8;}.g{fill:#fffcfd;}.h{fill:#2d2e2d;}.i{fill:none;stroke:#010101;stroke-linecap:round;stroke-miterlimit:10;stroke-width:4px;}.j{fill:#010101;}.k{fill:url(#a);}</style><linearGradient id="a" x1="250.57" y1="490.2" x2="282.69" y2="471.65" gradientTransform="translate(158.81 -58.29) rotate(17.7)" gradientUnits="userSpaceOnUse"><stop offset="0" stop-color="#fff"/><stop offset="1"/></linearGradient></defs><title>OrangeCup_phone</title><path class="a" d="M655.7,705.47l-35.64,6.46a364.88,364.88,0,0,1-149-4l-37-8.76a79.17,79.17,0,0,1-48.55-34.52L284.62,506.33a217.36,217.36,0,0,1-33.22-98.14L238.6,259.44H825.23L806.19,452a131.48,131.48,0,0,1-12.67,44.72L712.74,662.28A79.16,79.16,0,0,1,655.7,705.47Z"/><ellipse class="b" cx="531.91" cy="259.44" rx="293.31" ry="77.49"/><ellipse class="c" cx="528.83" cy="261.62" rx="281.56" ry="68.18"/><path class="d" d="M752.12,283.05c0,27.45-100,30.44-223.29,30.44s-223.29-8.42-223.29-35.87S394.64,221.7,518,221.7,752.12,255.6,752.12,283.05Z"/><path class="a" d="M794.52,404.81s37.73-55.4,74.56-35.1C880.62,376.07,888,388,889.52,401.1c3.83,31.78,2.45,104.68-87.78,115.68H773.86l-21.74,58.7S838.7,588,887.77,526c2-2.54,4.14-5,6.34-7.35,16.45-17.66,83-97.68,25.42-181.68,0,0-46.42-62.57-117.79,5.91Z"/><circle class="c" cx="425.19" cy="438.6" r="50.01"/><circle class="e" cx="413" cy="450.8" r="35.36"/><circle class="f" cx="401.77" cy="464.63" r="16.29"/><circle class="g" cx="619.24" cy="443.66" r="50.01"/><circle class="h" cx="606.34" cy="456.56" r="35.36"/><circle class="c" cx="595.11" cy="464.63" r="16.29"/><path class="i" d="M507.09,514.61s28.26,39.13,51.09-5.44"/><path class="a" d="M794.52,404.81s37.73-55.4,74.56-35.1C880.62,376.07,888,388,889.52,401.1c3.83,31.78,2.45,104.68-87.78,115.68H773.86l-21.74,58.7S838.7,588,887.77,526c2-2.54,4.14-5,6.34-7.35,16.45-17.66,83-97.68,25.42-181.68,0,0-46.42-62.57-117.79,5.91Z"/><ellipse class="j" cx="835.12" cy="629.85" rx="17.4" ry="5.94" transform="translate(-188.92 416.61) rotate(-25.26)"/><ellipse class="j" cx="828.24" cy="645.85" rx="4.35" ry="12.3" transform="translate(-182.78 930.35) rotate(-53.66)"/><path class="i" d="M752.12,509.17S784.3,515.69,818,636.36"/><path class="i" d="M466.07,682.56l-36.31,66.3a65,65,0,0,0-7.6,38.32l9.2,83.78"/><path class="i" d="M601.25,693l-44.82,70a47.14,47.14,0,0,0-6.54,34.51l13.49,68.55"/><ellipse class="j" cx="429.81" cy="877.83" rx="13.56" ry="7.29" transform="matrix(0.62, -0.78, 0.78, 0.62, -525.47, 671.04)"/><ellipse class="j" cx="560.83" cy="878.78" rx="13.56" ry="7.29" transform="translate(-476.79 979.37) rotate(-62.99)"/><ellipse class="j" cx="256.74" cy="452.01" rx="12.28" ry="4.34" transform="translate(-261.96 486.34) rotate(-64.19)"/><path class="i" d="M288.58,493.67,260,590.36a3.18,3.18,0,0,1-6.24-.89l-.24-132.91"/><rect class="k" x="261.55" y="413.84" width="10.17" height="134.16" rx="3.78" transform="matrix(0.95, -0.3, 0.3, 0.95, -133.58, 103.81)"/><ellipse class="j" cx="249.07" cy="445.9" rx="5.93" ry="17.36" transform="translate(-99.11 72.22) rotate(-13.79)"/></svg>