<svg xmlns="http://www.w3.org/2000/svg" width="1080" height="1080" viewBox="0 0 1080 1080"><defs><style>.a{fill:#d75328;}.b{fill:#bd3b27;}.c{fill:#f47928;}.d{fill:#d55127;}.e{fill:#fff;}.f{fill:#563f1f;}.g{fill:#302f2f;}.h{fill:#fffdf8;}.i{fill:#fffcfd;}.j{fill:#2d2e2d;}.k,.m{fill:none;stroke-linecap:round;}.k{stroke:#010101;stroke-miterlimit:10;stroke-width:4px;}.l{fill:#010101;}.m{stroke:#59ba47;stroke-linejoin:round;stroke-width:10px;}</style></defs><title>Orangecup_market</title><ellipse class="a" cx="565.19" cy="713.05" rx="428.81" ry="202.94"/><ellipse class="b" cx="575.73" cy="698.75" rx="220.53" ry="90.99"/><path class="c" d="M667.92,712.76l-29.75,5.39a304.46,304.46,0,0,1-124.4-3.31l-30.92-7.31a66.1,66.1,0,0,1-40.52-28.82l-84.19-132.2a181.4,181.4,0,0,1-27.73-81.92L319.72,340.41H809.45L793.56,501.13A110,110,0,0,1,783,538.46L715.54,676.7A66.07,66.07,0,0,1,667.92,712.76Z"/><ellipse class="d" cx="564.58" cy="340.41" rx="244.86" ry="64.69"/><ellipse class="e" cx="562.01" cy="342.22" rx="235.05" ry="56.92"/><path class="f" d="M748.42,360.12C748.42,383,665,385.53,562,385.53s-186.4-7-186.4-29.95S450,308.9,552.94,308.9,748.42,337.2,748.42,360.12Z"/><path class="c" d="M783.81,461.76s31.5-46.25,62.25-29.3c9.63,5.31,15.75,15.28,17.06,26.2,3.2,26.53,2,87.39-73.28,96.57H766.57l-18.15,49s72.28,10.48,113.24-41.34c1.68-2.12,3.45-4.16,5.29-6.13,13.74-14.75,69.27-81.55,21.23-151.67,0,0-38.76-52.24-98.34,4.93Z"/><circle class="e" cx="475.49" cy="489.97" r="41.75"/><circle class="g" cx="465.32" cy="481.96" r="29.52"/><circle class="h" cx="449.4" cy="476.37" r="13.6"/><circle class="i" cx="637.49" cy="494.19" r="41.75"/><circle class="j" cx="626.72" cy="485.77" r="29.52"/><circle class="e" cx="613.12" cy="476.37" r="13.6"/><path class="k" d="M543.86,553.42s23.6,32.67,42.66-4.54"/><line class="k" x1="361.45" y1="535.94" x2="332.41" y2="634.19"/><ellipse class="l" cx="316.64" cy="641.97" rx="14.52" ry="4.96" transform="translate(-235.15 185.99) rotate(-24.18)"/><ellipse class="l" cx="330.52" cy="646.3" rx="10.27" ry="3.63" transform="translate(-338.38 928.29) rotate(-85.77)"/><path class="k" d="M637.49,706.79S579.26,541.42,548.4,723l-19.06,90.85"/><path class="k" d="M502.69,700.44S445.85,509,413.18,730.39L405,774"/><ellipse class="l" cx="398.64" cy="783.95" rx="11.32" ry="6.09" transform="translate(-474.67 679.9) rotate(-56.25)"/><ellipse class="l" cx="525.4" cy="820.56" rx="11.32" ry="6.09" transform="translate(-433.62 992.71) rotate(-67.55)"/><ellipse class="l" cx="817.71" cy="649.63" rx="14.52" ry="4.96" transform="translate(-199.03 411.07) rotate(-25.26)"/><ellipse class="l" cx="811.96" cy="662.98" rx="3.63" ry="10.27" transform="translate(-203.21 924.22) rotate(-53.66)"/><path class="k" d="M748.42,548.88s26.86,5.45,55,106.18"/><polyline class="m" points="275.85 342.22 214.99 244.63 157.77 319.61 98.79 168.75 90.49 209.8"/><line class="m" x1="98.79" y1="168.75" x2="131.99" y2="192.2"/></svg>