<svg xmlns="http://www.w3.org/2000/svg" width="1080" height="1080" viewBox="0 0 1080 1080"><defs><style>.a{fill:#d17d00;}.b{fill:#603813;}.c{fill:#ffce00;}.d{fill:#da2e2e;}.e{fill:#44b200;}.f{fill:#fdfffe;}.g{fill:#2f2f2f;}.h{fill:#fffdf7;}.i{fill:#fffcff;}.j{fill:#2d2d2d;}.k{fill:#fff;}.l{fill:#ffffae;}.m{fill:none;stroke:#000;stroke-linecap:round;stroke-miterlimit:10;stroke-width:6px;}</style></defs><title>Burger</title><rect class="a" x="249.36" y="673.24" width="580.95" height="144.92" rx="32.84"/><rect class="b" x="224.73" y="619.25" width="632.73" height="107.98" rx="43.66"/><path class="c" d="M287.25,581.36s-81.46,17-80.51,64.41,54-17,54-17l249.11-6.46s44.52,72.77,80.51,33c0,0,26.53-32.2,49.26,4.74,0,0,40.73,72.94,94.72,1.9l22.73-37s14.85-13.26,73.25,1c0,0,18.63,11.37,27.15,36,0,0,52.1-25.58-3.78-65.36L777.9,581.36Z"/><rect class="d" x="256.22" y="515.06" width="574.09" height="75.78"/><path class="e" d="M288,460.94a33.35,33.35,0,0,0-20.12,7C252.7,479.8,223,503.33,218.1,510.32c-5.39,7.71-14.55,28.59,5.19,23.85,10.16-2.44,21-.68,29.28,5.7,5.64,4.36,13.37,7,22.85,2.12a32.59,32.59,0,0,1,33.7,2.09c14.12,9.89,40.13,15.2,86.13-9.63a33.17,33.17,0,0,1,25.13-2.64c16.54,4.86,46.11,10.65,70.73-.08a33.87,33.87,0,0,1,35.46,5.64c13.1,11.23,32.84,21.6,55.28,11.38a31.71,31.71,0,0,0,6.71-4.13c7.28-5.83,33.17-23.38,56,.67a32.43,32.43,0,0,0,9.47,6.77c15.16,7.28,53.81,19.46,99.88-14.53a32.15,32.15,0,0,0,3-2.56c1.75-1.66,6.34-4.83,15-3.65a31.38,31.38,0,0,1,12.65,4.74c5.91,3.77,19.86,11.06,34.29,6.82a33.87,33.87,0,0,1,26.17,3.43c19.25,11,48.32,21.85,29.57-26.23a33.4,33.4,0,0,0-11.88-15.16c-13.85-9.76-44.47-30.08-80.87-46.51a33.22,33.22,0,0,0-14.1-2.94Z"/><path class="a" d="M830.31,483.76c0-128.43-79.88-261.39-286.8-261.39s-287.29,129.53-287.29,258Z"/><circle class="f" cx="451.87" cy="390.66" r="60.14"/><circle class="g" cx="439.31" cy="403.22" r="42.52"/><circle class="h" cx="425.8" cy="419.86" r="19.59"/><circle class="i" cx="640.07" cy="396.74" r="60.14"/><circle class="j" cx="628" cy="409.12" r="42.52"/><circle class="k" cx="614.49" cy="418.82" r="19.59"/><ellipse class="l" cx="475.74" cy="266.89" rx="7.58" ry="17.52"/><ellipse class="l" cx="411.05" cy="292.94" rx="7.58" ry="17.52"/><ellipse class="l" cx="535.69" cy="292.94" rx="7.58" ry="17.52"/><ellipse class="l" cx="596.69" cy="266.89" rx="7.58" ry="17.52"/><ellipse class="l" cx="664.89" cy="292.94" rx="7.58" ry="17.52"/><path class="m" d="M482.41,479.2s56.64,80.07,106.56-8"/><ellipse cx="912.78" cy="705.71" rx="25.58" ry="9.55" transform="translate(-230.45 550.06) rotate(-29.96)"/><ellipse cx="902.99" cy="732.27" rx="6.79" ry="18.61" transform="translate(-245.27 914.26) rotate(-48.05)"/><path class="m" d="M794.71,505.36s45.78,10.83,93.72,211.16"/><ellipse cx="149.4" cy="705.88" rx="25.58" ry="9.55" transform="translate(-124.51 38.38) rotate(-10.36)"/><ellipse cx="174.05" cy="719.8" rx="18.61" ry="6.79" transform="translate(-562.62 795.46) rotate(-82.27)"/><path class="m" d="M268.37,499.08s-45.78,10.83-93.72,211.17"/><path class="m" d="M629,794.51S556.7,589.25,518.4,814.65l-17.49,83.4"/><path class="m" d="M461.67,786.62S391.12,549,350.57,823.79l-10.14,54.07"/><ellipse cx="332.53" cy="890.27" rx="14.05" ry="7.56" transform="translate(-592.45 672.18) rotate(-56.25)"/><ellipse cx="498.01" cy="908.99" rx="14.05" ry="7.56" transform="translate(-532.28 1022.05) rotate(-67.55)"/></svg>