<svg xmlns="http://www.w3.org/2000/svg" width="1080" height="1080" viewBox="0 0 1080 1080"><defs><style>.a{fill:#caa96d;}.b{fill:#a2cf28;}.c{fill:#f896a7;}.d{fill:#f9e24f;}.e{fill:#eace96;}.f{fill:#f8e4a1;}.g{fill:#fdfffe;}.h{fill:#2f2f2f;}.i{fill:#fffdf7;}.j{fill:#fffcff;}.k{fill:#2d2d2d;}.l{fill:#fff;}.m{fill:none;stroke:#000;stroke-linecap:round;stroke-miterlimit:10;stroke-width:4px;}</style></defs><title>Sandwich</title><path class="a" d="M701.53,679l2-311.75c17.4-10.56,28.86-38,25.32-61.78-15.42-103.45-294.26-75.19-294.26-75.19-115.28,10.37-154.76,57.32-155.42,98.75h0c-.39,24.26,9.05,36.05,25.3,41.79L302.11,661a37.92,37.92,0,0,0,26.36,36.46c43.24,13.79,146,31.64,356.06,1.07A19.86,19.86,0,0,0,701.53,679Z"/><path class="a" d="M721.28,314.34c-15.43-103.51-253.64-72.41-253.64-72.41-115.28,10.38-149.92,43.75-150.58,85.2h0c-.39,24.27,9.05,36.07,25.3,41.82l-2.42,294a31.09,31.09,0,0,0,31.84,31.34l298.73-7.22a22,22,0,0,0,21.4-21.54l5.25-299.1C714.56,355.9,724.83,338.15,721.28,314.34Z"/><path class="b" d="M735.46,667s26,85.75-117.55,52.48c0,0-7.29,42.66-93.61,10.6,0,0-142.42,9-137.88-9.47,0,0-16.19-31.52-36.69-36.13,0,0-43.08-14.21-32.42-64,0,0-58.71-88.31-8-121.69,0,0,18.65-29.16,13.84-74.15,0,0-19.87-31.38-9.78-53.06,0,0,21.89-18.52,9.21-47.46,0,0-15.22-31.6,15.45-33,0,0,22.55-17.62,23.44-38.88,0,0,6-36.29,46.53-31.66,0,0,28.54-1.26,36.53-8.08,0,0,58.13-19,82.23,2.7S643.85,436.86,643.85,436.86Z"/><path class="c" d="M642.69,675.84s-64.89,56.22-111.16,45.63c0,0-58.91,8.14-59.49-4.72,0,0-102.12-5-100.94-34.35,0,0-40.69-57.9-35-114.44,0,0-19.8-178.6,5.68-223.76,0,0,5.87-111.62,145.42-126.25s96.66,36.21,96.66,36.21Z"/><path class="d" d="M417.44,672.21,296.36,534.8a12.45,12.45,0,0,1-1-15.13L511.11,197.53a15,15,0,0,1,18.58-5.38l211.55,93.63Z"/><path class="a" d="M762.15,676.28l2-311.75c17.4-10.56,28.87-38,25.32-61.78-15.42-103.44-294.26-75.19-294.26-75.19C380,237.94,340.49,284.88,339.82,326.31h0c-.38,24.26,9.05,36.05,25.31,41.79l-2.41,290.19a37.94,37.94,0,0,0,26.36,36.46c43.25,13.79,146,31.64,356.07,1.08A19.9,19.9,0,0,0,762.15,676.28Z"/><path class="e" d="M781.89,311.59c-15.42-103.5-253.63-72.4-253.63-72.4C413,249.56,378.33,282.93,377.67,324.38h0c-.38,24.27,9.05,36.07,25.31,41.82l-2.43,294a31.1,31.1,0,0,0,31.85,31.34l298.72-7.22a21.92,21.92,0,0,0,21.4-21.54l5.25-299.1C775.17,353.15,785.44,335.41,781.89,311.59Z"/><path class="f" d="M462.69,349.64a40.71,40.71,0,0,0-1.81,10.68c-.19,5,7.65,5,7.83,0a32,32,0,0,1,1.54-8.6C471.77,346.91,464.21,344.84,462.69,349.64Z"/><path class="f" d="M508.38,369.17a9,9,0,0,1-.72-4.8c.31-2.09-.52-4.21-2.73-4.82-1.85-.51-4.51.63-4.82,2.74a18.45,18.45,0,0,0,1.51,10.83c.88,1.92,3.66,2.4,5.36,1.4A4,4,0,0,0,508.38,369.17Z"/><path class="f" d="M425.75,388.76a4,4,0,0,0-3.91,3.91q-.54,5.71-1.07,11.42c-.19,2.11,1.94,3.91,3.92,3.91a4,4,0,0,0,3.92-3.91q.52-5.71,1.06-11.42C429.87,390.56,427.73,388.76,425.75,388.76Z"/><path class="f" d="M482,387.78c-1.06-1.65-3.58-2.69-5.36-1.41a15.59,15.59,0,0,0-5.53,7.07c-.77,1.91.84,4.39,2.74,4.82a4,4,0,0,0,4.82-2.74c-.11.27-.27.56-.05.14L479,395c.1-.17.2-.33.31-.49l.16-.24q.26-.35-.18.21c0-.12.68-.76.79-.86s.36-.32.53-.49h0C482.25,391.94,483.22,389.67,482,387.78Z"/><path class="f" d="M470.93,476.46c-1.06-1.64-3.58-2.68-5.36-1.4a15.51,15.51,0,0,0-5.52,7.07c-.78,1.9.84,4.38,2.73,4.82a4,4,0,0,0,4.82-2.74c-.11.26-.27.56,0,.14.11-.22.22-.43.34-.64l.31-.5.16-.24c.17-.23.11-.16-.17.22,0-.12.68-.77.78-.87s.36-.32.53-.49h0C471.18,480.63,472.15,478.36,470.93,476.46Z"/><path class="f" d="M443.84,438.14a4,4,0,0,0-3.92,3.92v5.4a3.92,3.92,0,0,0,7.83,0v-5.4A4,4,0,0,0,443.84,438.14Z"/><path class="f" d="M428.91,338a3.92,3.92,0,0,0-2.34-1.8c-2-.45-4.37.59-4.82,2.73l-.62,3a4.19,4.19,0,0,0,.4,3,4,4,0,0,0,2.34,1.8c2,.44,4.37-.59,4.82-2.74.2-1,.41-2,.62-3A4.15,4.15,0,0,0,428.91,338Z"/><path class="f" d="M425.22,297.63v10.8c0,5,7.83,5.05,7.83,0v-10.8C433.05,292.59,425.22,292.58,425.22,297.63Z"/><path class="f" d="M477.08,283.13a4,4,0,0,0-5.54,0,14.36,14.36,0,0,1-6.07,3.17c-4.88,1.27-2.81,8.83,2.08,7.56a22.9,22.9,0,0,0,9.53-5.2A3.94,3.94,0,0,0,477.08,283.13Z"/><path class="f" d="M479.78,314.65a4,4,0,0,0-5.54,0l-3,3a3.92,3.92,0,0,0,5.54,5.54l3-3A4,4,0,0,0,479.78,314.65Z"/><path class="f" d="M504.77,316.27a36,36,0,0,1-.49-9.15,3.92,3.92,0,0,0-7.83,0,44.17,44.17,0,0,0,.77,11.24c.39,2.07,2.89,3.26,4.81,2.73A4,4,0,0,0,504.77,316.27Z"/><path class="f" d="M538.77,345.24a4,4,0,0,0-5.36-1.4,13.66,13.66,0,0,0-6.87,8.17,4,4,0,0,0,2.74,4.82,4,4,0,0,0,4.81-2.73l.2-.54c.09-.16.2-.39.23-.43.14-.25.32-.48.46-.73l0,0a.67.67,0,0,0,.12-.12c.16-.17.31-.34.48-.5,0,0,.27-.22.41-.35l.44-.3a9.93,9.93,0,0,1,.91-.49A3.94,3.94,0,0,0,538.77,345.24Z"/><path class="f" d="M545.17,402.35A16.82,16.82,0,0,0,540.48,392c-3.52-3.62-9.05,1.92-5.53,5.54a8.78,8.78,0,0,1,2.39,4.78,4,4,0,0,0,3.92,3.92C543.2,406.27,545.4,404.47,545.17,402.35Z"/><path class="f" d="M567,377.94a4,4,0,0,0-5.36,1.41,35.22,35.22,0,0,1-4.78,7,4,4,0,0,0,0,5.54,3.94,3.94,0,0,0,5.53,0,44.22,44.22,0,0,0,6-8.59A4,4,0,0,0,567,377.94Z"/><path class="f" d="M619.84,353a45.41,45.41,0,0,0-.91,15.5c.25,2.12,1.62,3.89,3.92,3.92,1.92,0,4.16-1.82,3.91-3.92a39.3,39.3,0,0,1,.63-13.42C628.51,350.13,621,348,619.84,353Z"/><path class="f" d="M541.78,316.75a4,4,0,0,0-5.36,1.4l-3.07,5.36a3.91,3.91,0,1,0,6.76,3.95c1-1.78,2-3.57,3.08-5.36A4,4,0,0,0,541.78,316.75Z"/><path class="f" d="M552.5,265.91c-2.24-.61-4,.77-4.82,2.74a19.75,19.75,0,0,0-1.31,9.44,4,4,0,0,0,3.91,3.92c2,0,4.15-1.8,3.92-3.92a14.6,14.6,0,0,1,1-7.36C556,268.77,554.37,266.43,552.5,265.91Z"/><path class="f" d="M605.56,266.73a4,4,0,0,0-3.91,3.91,6.22,6.22,0,0,1-1.46,3.74,4,4,0,0,0,0,5.54,4,4,0,0,0,5.53,0,14.58,14.58,0,0,0,3.76-9.28A3.94,3.94,0,0,0,605.56,266.73Z"/><path class="f" d="M569.11,304.86c-.31-2.1-3-3.25-4.81-2.74-2.25.62-3,2.72-2.74,4.82a46.79,46.79,0,0,1,.27,10.38c-.38,5,7.46,5,7.83,0A55.29,55.29,0,0,0,569.11,304.86Z"/><path class="f" d="M566.57,331.37a4.56,4.56,0,0,0-2.34-1.8l-3-1.19a4,4,0,0,0-3,.4,3.9,3.9,0,0,0-1.4,5.35,4.47,4.47,0,0,0,2.34,1.8l3,1.2a3.94,3.94,0,0,0,3-.4,3.92,3.92,0,0,0,1.41-5.36Z"/><path class="f" d="M591,341.39c-2-1.17-4.1-.3-5.36,1.4l-7.14,9.65c-1.25,1.7-.28,4.37,1.41,5.36,2,1.17,4.1.3,5.36-1.4q3.57-4.83,7.13-9.65C593.7,345,592.72,342.37,591,341.39Z"/><path class="f" d="M595.34,293.82a4,4,0,0,0-4.82-2.74,4,4,0,0,0-2.74,4.82,33.21,33.21,0,0,1,2.05,10.42c.15,5,8,5.05,7.83,0A40.36,40.36,0,0,0,595.34,293.82Z"/><path class="f" d="M657.46,286a39.84,39.84,0,0,0-5.62-13c-2.79-4.17-9.57-.26-6.77,4a33.36,33.36,0,0,1,4.84,11.14C651.06,293,658.61,290.92,657.46,286Z"/><path class="f" d="M600.4,385.21c-5,0-5,7.83,0,7.83S605.44,385.21,600.4,385.21Z"/><path class="f" d="M607.41,408.92c-5,0-5,7.84,0,7.84S612.46,408.92,607.41,408.92Z"/><path class="f" d="M582.81,433.54c-5,0-5,7.83,0,7.83S587.86,433.54,582.81,433.54Z"/><path class="f" d="M598.62,473.9a11.82,11.82,0,0,0-2.69-4.81,3.92,3.92,0,0,0-5.53,0,4,4,0,0,0,0,5.51,7.61,7.61,0,0,1,.51.87c.06.17.13.34.18.51a3.92,3.92,0,1,0,7.55-2.08Z"/><path class="f" d="M604.28,437.46a4,4,0,0,0-3.92,3.92v4.2a3.92,3.92,0,0,0,7.84,0v-4.2A4,4,0,0,0,604.28,437.46Z"/><path class="f" d="M667.44,368.57a4,4,0,0,0-4.82,2.74c-.1.36-.21.72-.34,1.07,0,0-.38.77-.45.88s-.54.81-.53.83a10.36,10.36,0,0,1-.77.85,3.91,3.91,0,1,0,5.53,5.54,15.84,15.84,0,0,0,4.11-7.09A4,4,0,0,0,667.44,368.57Z"/><path class="f" d="M646.6,352.81c-5,0-5.05,7.83,0,7.83S651.65,352.81,646.6,352.81Z"/><path class="f" d="M673.76,339.44c-5,0-5,7.83,0,7.83S678.8,339.44,673.76,339.44Z"/><path class="f" d="M638.2,317.41a4,4,0,0,0-3.92,3.91v5.4a3.92,3.92,0,1,0,7.83,0v-5.4A4,4,0,0,0,638.2,317.41Z"/><path class="f" d="M733.55,279.68c-.72-2.24-2.63-3-4.82-2.73l-4.79.64a3.92,3.92,0,0,0-2.34,1.8,4,4,0,0,0-.39,3c.72,2.24,2.63,3,4.81,2.74l4.8-.65a3.94,3.94,0,0,0,2.34-1.8A4,4,0,0,0,733.55,279.68Z"/><path class="f" d="M702.87,327.17q-1.49-3.9-3-7.8a4,4,0,0,0-4.82-2.74c-1.89.52-3.49,2.84-2.73,4.82l3,7.8a4,4,0,0,0,4.82,2.74C702,331.47,703.64,329.16,702.87,327.17Z"/><path class="f" d="M740.1,325.2c-1.62-1.63-3.88-1.34-5.54,0l-6.63,5.35c-1.65,1.33-1.39,4.15,0,5.54,1.63,1.63,3.88,1.33,5.54,0l6.63-5.35C741.75,329.41,741.49,326.58,740.1,325.2Z"/><path class="f" d="M705.86,282.42c-.79-2-2.6-3.34-4.81-2.73-1.86.51-3.54,2.84-2.74,4.81a24.63,24.63,0,0,1,1.88,8.05,4,4,0,0,0,3.92,3.92,4,4,0,0,0,3.92-3.92A31.19,31.19,0,0,0,705.86,282.42Z"/><path class="f" d="M723.88,368.23a9.29,9.29,0,0,1-.33-.93c0-.08-.12-.64-.16-.82s0-.5,0-.56c0-.22.16-1.38,0-.42.33-2-.53-4.32-2.74-4.82-1.89-.43-4.46.57-4.82,2.73a12.86,12.86,0,0,0,.52,6.9c.75,1.9,2.65,3.44,4.81,2.74C723,372.45,724.69,370.27,723.88,368.23Z"/><path class="f" d="M699,386.25l-2.41-11.4c-1-4.93-8.59-2.84-7.55,2.09l2.4,11.4C692.5,393.27,700.06,391.18,699,386.25Z"/><path class="f" d="M731.77,416.25l-2.41-11.4c-1-4.93-8.59-2.84-7.55,2.08l2.4,11.4C725.25,423.26,732.8,421.17,731.77,416.25Z"/><path class="f" d="M739.2,451.92a4,4,0,0,0-5.36-1.41l-3.6,2.4a3.92,3.92,0,0,0,4,6.77l3.6-2.4A4,4,0,0,0,739.2,451.92Z"/><path class="f" d="M754.43,355.08q-1.68,5.15-3.37,10.28c-1.58,4.8,6,6.86,7.55,2.08q1.7-5.13,3.37-10.27C763.56,352.37,756,350.31,754.43,355.08Z"/><path class="f" d="M758.28,306.5v7.2c0,5,7.83,5.05,7.83,0v-7.2C766.11,301.46,758.28,301.45,758.28,306.5Z"/><path class="f" d="M728.57,534.64c.08-.39.17-.78.28-1.16,0-.15.49-1.27.28-.8.86-1.86.59-4.31-1.41-5.36-1.72-.91-4.44-.58-5.36,1.4a16.8,16.8,0,0,0-1.67,8,4.2,4.2,0,0,0,2.78,3.78,3.56,3.56,0,0,0,2.93,1.34C730.56,541.84,731.29,536.5,728.57,534.64Z"/><path class="f" d="M726.81,573.13l-6.61-9a4,4,0,0,0-5.36-1.41c-1.68,1-2.67,3.65-1.41,5.36l6.61,9c1.26,1.7,3.4,2.56,5.36,1.41C727.08,577.51,728.07,574.84,726.81,573.13Z"/><path class="f" d="M728.31,582.85c-2.23-.61-4,.76-4.82,2.74a15.61,15.61,0,0,1-4.24,5.76,3.92,3.92,0,0,0,5.54,5.54,23.8,23.8,0,0,0,6.26-9.22C731.83,585.7,730.19,583.37,728.31,582.85Z"/><path class="f" d="M699.06,611.87l-2.49-10.78c-1.14-4.91-8.69-2.83-7.55,2.08L691.51,614C692.65,618.86,700.2,616.78,699.06,611.87Z"/><path class="f" d="M702,629.35a4,4,0,0,0-5.35,1.41l-.43.6,0,0c-.37.39-.71.81-1.09,1.19s-.72.67-1.08,1l-.09.08-.68.48a4,4,0,0,0-1.41,5.36c1.09,1.68,3.54,2.63,5.36,1.4a23,23,0,0,0,6.22-6.19A3.94,3.94,0,0,0,702,629.35Z"/><path class="f" d="M673.77,653.29l-1.2-3.6a3.92,3.92,0,1,0-7.55,2.08l1.2,3.6a3.92,3.92,0,0,0,7.55-2.08Z"/><path class="f" d="M650.25,555.61l-15.64,8.33c-4.45,2.38-.5,9.14,3.95,6.77l15.64-8.34C658.65,560,654.7,553.24,650.25,555.61Z"/><path class="f" d="M661.7,609.1q-3,6.31-5.9,12.64c-2.12,4.54,4.63,8.52,6.76,4q3-6.33,5.9-12.65C670.58,608.51,663.83,604.53,661.7,609.1Z"/><path class="f" d="M611.2,621c-5,0-5.05,7.83,0,7.83S616.24,621,611.2,621Z"/><path class="f" d="M611.2,634.81c-5,0-5.05,7.83,0,7.83S616.24,634.81,611.2,634.81Z"/><path class="f" d="M574.06,580v7.2c0,5,7.83,5,7.83,0V580C581.89,575,574.06,575,574.06,580Z"/><path class="f" d="M568.77,622a4,4,0,0,0-5.35-1.4l-4.15,1.91a3.93,3.93,0,0,0-1.41,5.36,4,4,0,0,0,5.36,1.41l4.15-1.92A3.94,3.94,0,0,0,568.77,622Z"/><path class="f" d="M541.64,583.73a4,4,0,0,0-4.82,2.74l-1.2,3.6a3.94,3.94,0,0,0,2.74,4.82,4,4,0,0,0,4.82-2.74l1.2-3.6A4,4,0,0,0,541.64,583.73Z"/><path class="f" d="M536.79,642c-5,0-5,7.83,0,7.83S541.84,642,536.79,642Z"/><path class="f" d="M489.15,612.41a4,4,0,0,0-4.81,2.74,17.25,17.25,0,0,1-3.8,6.07c-3.48,3.65,2,9.2,5.54,5.54a26.36,26.36,0,0,0,5.81-9.53A4,4,0,0,0,489.15,612.41Z"/><path class="f" d="M541.14,527.69a4,4,0,0,0-5.36-1.41c-1.69,1-2.66,3.64-1.41,5.36a12.47,12.47,0,0,1,2.59,7.27c.11,5,7.94,5.05,7.83,0A19.76,19.76,0,0,0,541.14,527.69Z"/><path class="f" d="M513,609.5c-5,0-5,7.83,0,7.83S518,609.5,513,609.5Z"/><path class="f" d="M500.92,560.29c-2.22-.61-4,.76-4.82,2.74.17-.43-.17.33-.21.41-.16.31-.35.61-.54.91s-.08.14-.28.38-.48.52-.73.76a8.48,8.48,0,0,1-2.59,1.57,4,4,0,0,0-2.74,4.82,4,4,0,0,0,4.82,2.74,15.78,15.78,0,0,0,9.83-9.51C504.43,563.14,502.81,560.81,500.92,560.29Z"/><path class="f" d="M446.93,596.62c-2.33,0-3.66,1.83-3.92,3.92a70.36,70.36,0,0,0-.38,13.22c.32,5,8.16,5,7.83,0a71.21,71.21,0,0,1,.38-13.22C451.1,598.42,448.86,596.64,446.93,596.62Z"/><path class="f" d="M450.75,646.69l-.6-3.6a3.92,3.92,0,0,0-1.8-2.34,3.91,3.91,0,0,0-5.75,4.42l.6,3.6a3.91,3.91,0,0,0,1.8,2.34,4,4,0,0,0,3,.39A4,4,0,0,0,450.75,646.69Z"/><path class="f" d="M490,662.53l-1.79-3.6a4,4,0,0,0-5.36-1.41,4,4,0,0,0-1.4,5.36l1.78,3.61a3.94,3.94,0,0,0,5.36,1.4A4,4,0,0,0,490,662.53Z"/><path class="f" d="M444.36,549.85a12,12,0,0,0-3.32-7.74,3.92,3.92,0,1,0-5.54,5.54c.11.11.2.22.3.33l.06.08c0,.05.19.35.31.55s.25.67.27.76.05.23.08.34a.71.71,0,0,0,0,.14,4,4,0,0,0,3.91,3.92C442.46,553.68,444.5,552,444.36,549.85Z"/><path class="f" d="M475.51,523.89v9.6c0,5,7.83,5,7.83,0v-9.6C483.34,518.85,475.51,518.84,475.51,523.89Z"/><path class="f" d="M438.9,497.42a19.7,19.7,0,0,1-1.93-8.81c0-5-7.81-5.05-7.83,0a28.72,28.72,0,0,0,3,12.77,4,4,0,0,0,5.36,1.4A4,4,0,0,0,438.9,497.42Z"/><path class="f" d="M682.69,548.3l-1.26-5.38a4,4,0,0,0-4.82-2.74,4,4,0,0,0-2.74,4.82c.43,1.8.85,3.59,1.27,5.39a4,4,0,0,0,4.82,2.73A4,4,0,0,0,682.69,548.3Z"/><path class="f" d="M719.32,497.7a4,4,0,0,0-5.36,1.41l-3.53,5.44a4,4,0,0,0,1.4,5.36,4,4,0,0,0,5.36-1.4l3.53-5.45A4,4,0,0,0,719.32,497.7Z"/><path class="f" d="M661.8,525.81l-.61-11.4c-.26-5-8.1-5-7.83,0l.61,11.4C654.23,530.82,662.07,530.85,661.8,525.81Z"/><circle class="g" cx="673.95" cy="440.7" r="40.07"/><circle class="h" cx="683.72" cy="450.47" r="28.34"/><circle class="i" cx="692.73" cy="461.56" r="13.05"/><circle class="j" cx="518.45" cy="444.76" r="40.07"/><circle class="k" cx="528.79" cy="455.1" r="28.34"/><circle class="l" cx="537.79" cy="461.56" r="13.05"/><path class="m" d="M565,529.31s32.13,44.5,58.09-6.18"/><ellipse cx="846.01" cy="643.91" rx="20.44" ry="6.98" transform="translate(-193.88 422.6) rotate(-25.26)"/><ellipse cx="837.93" cy="662.71" rx="5.11" ry="14.45" transform="translate(-192.41 945.03) rotate(-53.66)"/><path class="m" d="M748.5,502.13s37.81,7.66,77.4,149.43"/><ellipse cx="315.03" cy="651.8" rx="20.44" ry="6.98" transform="translate(-118.3 71.88) rotate(-10.97)"/><ellipse cx="332.66" cy="662.18" rx="14.45" ry="5.11" transform="translate(-398.76 781.22) rotate(-72.57)"/><path class="m" d="M416.24,502.13s-37.8,7.66-77.4,149.43"/><path class="m" d="M517.25,662.18S554.8,794.7,537,838.33"/><path class="m" d="M647.05,645.54s37.55,132.52,19.77,176.15"/><ellipse cx="671.6" cy="829.4" rx="6.98" ry="13.01" transform="translate(-383.15 666.74) rotate(-42.23)"/><ellipse cx="543.64" cy="846.04" rx="6.98" ry="13.01" transform="translate(-427.55 585.05) rotate(-42.23)"/></svg>